<svg xmlns="http://www.w3.org/2000/svg" viewBox="0 0 56 56" role="img" aria-label="YouTube icon">
  <circle cx="28" cy="28" r="28" fill="#E4002B"/>
  <svg x="14" y="14" width="28" height="28" viewBox="0 0 24 24" fill="none" stroke="white" stroke-width="1.8" stroke-linecap="round" stroke-linejoin="round"><path d="M22.54 6.42a2.78 2.78 0 00-1.95-1.96C18.88 4 12 4 12 4s-6.88 0-8.59.46a2.78 2.78 0 00-1.95 1.96A29 29 0 001 12a29 29 0 00.46 5.58A2.78 2.78 0 003.41 19.54C5.12 20 12 20 12 20s6.88 0 8.59-.46a2.78 2.78 0 001.95-1.96A29 29 0 0023 12a29 29 0 00-.46-5.58z" fill="none"/><polygon points="9.75 15.02 15.5 12 9.75 8.98 9.75 15.02" fill="white" stroke="none"/></svg>
</svg>
